<svg width="36" height="36" viewBox="0 0 36 36" fill="none" xmlns="http://www.w3.org/2000/svg">
<g id="Adobe Illustrator" clip-path="url(#clip0_261_296)">
<path id="bg" d="M0 13.0286C0 8.46814 0 6.18793 0.887518 4.44608C1.6682 2.9139 2.9139 1.6682 4.44608 0.887518C6.18793 0 8.46814 0 13.0286 0H22.9714C27.5319 0 29.8121 0 31.5539 0.887518C33.0861 1.6682 34.3318 2.9139 35.1125 4.44608C36 6.18793 36 8.46814 36 13.0286V22.9714C36 27.5319 36 29.8121 35.1125 31.5539C34.3318 33.0861 33.0861 34.3318 31.5539 35.1125C29.8121 36 27.5319 36 22.9714 36H13.0286C8.46814 36 6.18793 36 4.44608 35.1125C2.9139 34.3318 1.6682 33.0861 0.887518 31.5539C0 29.8121 0 27.5319 0 22.9714V13.0286Z" fill="#330000"/>
<g id="Vector">
<path d="M17.4451 22.6238H11.8664L10.7314 26.2401C10.6999 26.3744 10.5761 26.4696 10.4416 26.463H7.61602C7.45488 26.463 7.39853 26.3722 7.44697 26.1905L12.2769 11.9235C12.3253 11.7749 12.3736 11.6056 12.4219 11.4157C12.4851 11.0852 12.5174 10.7493 12.5185 10.4126C12.5046 10.3131 12.5921 10.2252 12.6875 10.2392H16.5273C16.6398 10.2392 16.7042 10.2804 16.7205 10.363L22.2026 26.2153C22.2509 26.3806 22.2026 26.4631 22.0577 26.463H18.9182C18.8081 26.4755 18.7029 26.4 18.6767 26.2896L17.4451 22.6238ZM12.7358 19.5029H16.5515C15.9246 17.3606 15.2171 15.2465 14.6437 13.0876C14.025 15.2502 13.35 17.404 12.7358 19.5029Z" fill="#FF9A00"/>
<path d="M25.4626 12.8646C25.2163 12.8748 24.9706 12.8315 24.7417 12.7376C24.5129 12.6437 24.3059 12.5013 24.1343 12.3197C23.9633 12.1303 23.8304 11.908 23.7433 11.6657C23.6563 11.4234 23.6168 11.1659 23.6271 10.9079C23.6183 10.6524 23.6622 10.3979 23.7558 10.1611C23.8495 9.92418 23.9908 9.71022 24.1705 9.53316C24.3485 9.35793 24.5586 9.22064 24.7887 9.12924C25.0187 9.03783 25.2642 8.99412 25.5108 9.00063C26.0905 9.00063 26.5453 9.17814 26.8753 9.53316C27.0419 9.71766 27.1714 9.93405 27.2564 10.1699C27.3413 10.4058 27.38 10.6566 27.3704 10.9079C27.3805 11.1669 27.3397 11.4253 27.2505 11.6678C27.1613 11.9104 27.0255 12.1321 26.8512 12.3197C26.6689 12.5039 26.4515 12.6475 26.2125 12.7413C25.9735 12.8351 25.7182 12.8771 25.4626 12.8646ZM23.7962 26.2152V14.3755C23.7962 14.2269 23.8603 14.1526 23.9894 14.1526H26.9599C27.0885 14.1526 27.153 14.2269 27.1531 14.3755V26.2152C27.1531 26.3805 27.0887 26.463 26.9599 26.4629H24.0136C23.8687 26.4629 23.7962 26.3804 23.7962 26.2152Z" fill="#FF9A00"/>
</g>
</g>
<defs>
<clipPath id="clip0_261_296">
<rect width="36" height="36" fill="white"/>
</clipPath>
</defs>
</svg>
