<svg width="48" height="47" viewBox="0 0 48 47" fill="none" xmlns="http://www.w3.org/2000/svg">
<g id="preview_FILL0_wght400_GRAD0_opsz24 1">
<path id="Vector" d="M10.4582 41.125C9.38109 41.125 8.45904 40.7415 7.69202 39.9745C6.92501 39.2075 6.5415 38.2854 6.5415 37.2083V9.79167C6.5415 8.71458 6.92501 7.79253 7.69202 7.02552C8.45904 6.25851 9.38109 5.875 10.4582 5.875H37.8748C38.9519 5.875 39.874 6.25851 40.641 7.02552C41.408 7.79253 41.7915 8.71458 41.7915 9.79167V37.2083C41.7915 38.2854 41.408 39.2075 40.641 39.9745C39.874 40.7415 38.9519 41.125 37.8748 41.125H10.4582ZM10.4582 37.2083H37.8748V13.7083H10.4582V37.2083ZM24.1665 33.2917C21.4901 33.2917 19.0993 32.5655 16.9941 31.113C14.8889 29.6606 13.363 27.7757 12.4165 25.4583C13.363 23.141 14.8889 21.2561 16.9941 19.8036C19.0993 18.3512 21.4901 17.625 24.1665 17.625C26.8429 17.625 29.2337 18.3512 31.3389 19.8036C33.4441 21.2561 34.97 23.141 35.9165 25.4583C34.97 27.7757 33.4441 29.6606 31.3389 31.113C29.2337 32.5655 26.8429 33.2917 24.1665 33.2917ZM24.1665 30.3542C25.9943 30.3542 27.6589 29.9217 29.1603 29.0568C30.6616 28.1918 31.8366 26.9924 32.6853 25.4583C31.8366 23.9243 30.6616 22.7248 29.1603 21.8599C27.6589 20.995 25.9943 20.5625 24.1665 20.5625C22.3387 20.5625 20.6741 20.995 19.1728 21.8599C17.6714 22.7248 16.4964 23.9243 15.6478 25.4583C16.4964 26.9924 17.6714 28.1918 19.1728 29.0568C20.6741 29.9217 22.3387 30.3542 24.1665 30.3542ZM24.1665 28.3958C24.9825 28.3958 25.6761 28.1102 26.2472 27.5391C26.8184 26.9679 27.104 26.2743 27.104 25.4583C27.104 24.6424 26.8184 23.9488 26.2472 23.3776C25.6761 22.8064 24.9825 22.5208 24.1665 22.5208C23.3505 22.5208 22.657 22.8064 22.0858 23.3776C21.5146 23.9488 21.229 24.6424 21.229 25.4583C21.229 26.2743 21.5146 26.9679 22.0858 27.5391C22.657 28.1102 23.3505 28.3958 24.1665 28.3958Z" fill="#68FFFF"/>
</g>
</svg>
