<svg width="36" height="36" viewBox="0 0 36 36" fill="none" xmlns="http://www.w3.org/2000/svg">
<g id="Adobe inDesign" clip-path="url(#clip0_261_297)">
<path id="bg" d="M0 13.0286C0 8.46814 0 6.18793 0.887518 4.44608C1.6682 2.9139 2.9139 1.6682 4.44608 0.887518C6.18793 0 8.46814 0 13.0286 0H22.9714C27.5319 0 29.8121 0 31.5539 0.887518C33.0861 1.6682 34.3318 2.9139 35.1125 4.44608C36 6.18793 36 8.46814 36 13.0286V22.9714C36 27.5319 36 29.8121 35.1125 31.5539C34.3318 33.0861 33.0861 34.3318 31.5539 35.1125C29.8121 36 27.5319 36 22.9714 36H13.0286C8.46814 36 6.18793 36 4.44608 35.1125C2.9139 34.3318 1.6682 33.0861 0.887518 31.5539C0 29.8121 0 27.5319 0 22.9714V13.0286Z" fill="#49021F"/>
<g id="Vector">
<path d="M12.3327 10.5371V26.315C12.3327 26.4803 12.2602 26.5629 12.1154 26.5628H9.19314C9.06416 26.5628 8.99978 26.4802 9 26.315V10.5371C9 10.4051 9.07244 10.339 9.21731 10.3389H12.1395C12.2503 10.3228 12.3484 10.4234 12.3327 10.5371Z" fill="#FF3366"/>
<path d="M20.9784 26.8104C19.8668 26.8277 18.7655 26.5908 17.7544 26.1168C15.6078 25.0979 14.675 22.8427 14.6753 20.519C14.6567 18.201 15.8844 15.9924 17.8872 14.8964C19.2698 14.1109 20.896 13.9114 22.4515 14.0542V9.17468C22.4515 9.05934 22.4999 9.0013 22.5965 9.0013H25.6393C25.7225 8.98911 25.7961 9.06459 25.7843 9.14989V23.7885C25.7843 24.3925 25.8441 24.9944 25.8809 25.5967C25.8868 25.6996 25.8273 25.8013 25.7359 25.8444C24.9509 26.1802 24.1333 26.4293 23.2968 26.5874C22.532 26.7322 21.7561 26.8068 20.9784 26.8104ZM22.4515 23.739V16.977C20.2558 16.3669 18.1043 18.0433 18.1046 20.3704C18.0515 22.8074 20.2244 24.4071 22.4515 23.739Z" fill="#FF3366"/>
</g>
</g>
<defs>
<clipPath id="clip0_261_297">
<rect width="36" height="36" fill="white"/>
</clipPath>
</defs>
</svg>
