<svg width="36" height="36" viewBox="0 0 36 36" fill="none" xmlns="http://www.w3.org/2000/svg">
<g id="Adobe Photoshop" clip-path="url(#clip0_261_295)">
<path id="bg" d="M0 13.0286C0 8.46814 0 6.18793 0.887518 4.44608C1.6682 2.9139 2.9139 1.6682 4.44608 0.887518C6.18793 0 8.46814 0 13.0286 0H22.9714C27.5319 0 29.8121 0 31.5539 0.887518C33.0861 1.6682 34.3318 2.9139 35.1125 4.44608C36 6.18793 36 8.46814 36 13.0286V22.9714C36 27.5319 36 29.8121 35.1125 31.5539C34.3318 33.0861 33.0861 34.3318 31.5539 35.1125C29.8121 36 27.5319 36 22.9714 36H13.0286C8.46814 36 6.18793 36 4.44608 35.1125C2.9139 34.3318 1.6682 33.0861 0.887518 31.5539C0 29.8121 0 27.5319 0 22.9714V13.0286Z" fill="#001E36"/>
<g id="Vector">
<path d="M7.71436 26.3781V10.5473C7.71436 10.4396 7.75936 10.3781 7.86436 10.3781C9.41445 10.3781 10.9638 10.2858 12.5144 10.2858C15.0303 10.2858 17.7545 11.146 18.7094 13.7781C18.9344 14.4242 19.0544 15.0858 19.0544 15.7781C19.0544 17.1012 18.7544 18.1935 18.1544 19.055C16.4783 21.4616 13.5734 21.4242 10.9694 21.4242V26.3627C10.9897 26.5089 10.8651 26.5781 10.7444 26.5781H7.89436C7.77436 26.5781 7.71436 26.5165 7.71436 26.3781ZM10.9844 13.3473V18.5165C12.0168 18.5922 13.0973 18.6004 14.0894 18.2704C15.1846 17.9545 15.7844 17.0064 15.7844 15.8704C15.8148 14.9024 15.2873 13.9736 14.3894 13.6242C13.4093 13.2167 12.0423 13.1923 10.9844 13.3473Z" fill="#31A8FF"/>
<path d="M28.4101 17.4953C27.9562 17.2561 27.4728 17.0811 26.9731 16.9751C26.331 16.824 23.7984 16.2948 23.7974 17.6191C23.8199 18.3584 24.9935 18.7206 25.512 18.9318C27.3324 19.5568 29.3924 20.674 29.3519 22.9197C29.4076 25.7154 26.6989 26.833 24.377 26.8332C23.1682 26.8458 21.909 26.6585 20.8028 26.1397C20.6972 26.0838 20.6292 25.9642 20.6337 25.8424V23.1674C20.6218 23.0601 20.7369 22.9664 20.8269 23.0435C21.9108 23.699 23.1956 24.0173 24.4494 24.0343C25.0029 24.0343 26.1 23.9806 26.0917 23.1674C26.0917 22.3869 24.7793 22.0281 24.2562 21.8298C23.4979 21.5591 22.7789 21.1842 22.1189 20.7152C21.1966 20.0573 20.618 19.0025 20.6337 17.842C20.6283 15.2097 23.1217 14.0281 25.3672 14.0275C26.4169 14.0189 27.5441 14.0966 28.5213 14.5229C28.6618 14.5643 28.691 14.7123 28.6903 14.8449V17.3466C28.6993 17.5019 28.5268 17.5548 28.4101 17.4953Z" fill="#31A8FF"/>
</g>
</g>
<defs>
<clipPath id="clip0_261_295">
<rect width="36" height="36" fill="white"/>
</clipPath>
</defs>
</svg>
