<svg width="36" height="36" viewBox="0 0 36 36" fill="none" xmlns="http://www.w3.org/2000/svg">
<g id="webflow">
<g clip-path="url(#clip0_261_298)">
<path id="Base" d="M36 10C36 4.47715 31.5228 0 26 0H10C4.47715 0 0 4.47715 0 10V26C0 31.5228 4.47715 36 10 36H26C31.5228 36 36 31.5228 36 26V10Z" fill="#4353FF"/>
<path id="Path" d="M23.802 14.5829C23.802 14.5829 21.856 20.6444 21.697 21.145C21.207 17.346 20.7123 13.5477 20.213 9.75C16.897 9.75 15.124 12.0939 14.187 14.568L11.622 21.1599C11.607 20.6871 11.262 14.6395 11.262 14.6395C11.058 11.6083 8.262 9.76291 6 9.76291L8.739 26.25C12.213 26.2351 14.086 23.9051 15.067 21.431C15.067 21.431 17.157 16.0697 17.243 15.8264C17.258 16.0548 18.743 26.249 18.743 26.249C22.231 26.249 24.105 24.062 25.113 21.6743L30 9.7639C26.555 9.7639 24.739 12.0939 23.802 14.5819V14.5829Z" fill="white"/>
</g>
<rect x="0.5" y="0.5" width="35" height="35" stroke="black" stroke-opacity="0.1"/>
</g>
<defs>
<clipPath id="clip0_261_298">
<rect width="36" height="36" fill="white"/>
</clipPath>
</defs>
</svg>
