<svg width="36" height="36" viewBox="0 0 36 36" fill="none" xmlns="http://www.w3.org/2000/svg">
<g id="wordpress">
<g clip-path="url(#clip0_261_299)">
<path id="Base" d="M36 0H0V36H36V0Z" fill="white"/>
<path id="Path" d="M18 6C24.6164 6 30.0008 11.3834 30.001 18C30.0008 24.6174 24.6163 30 18 30C11.3833 30 6.00021 24.6172 6 18C6 11.3834 11.3834 6.00001 18 6ZM18 6.55078C11.6866 6.55079 6.5498 11.687 6.5498 18C6.55002 24.3134 11.6869 29.4502 18 29.4502C24.3127 29.4502 29.449 24.3134 29.4492 18C29.4492 11.687 24.313 6.55078 18 6.55078ZM21.3457 27.5693C21.3657 27.6186 21.3903 27.6661 21.4189 27.7109C20.3489 28.087 19.1988 28.2949 18 28.2949C17.0156 28.2949 16.0361 28.1533 15.0918 27.875L18.1807 18.9004L21.3457 27.5693ZM13.5078 27.2646C10.0741 25.5958 7.7062 22.0747 7.70605 18C7.70494 16.5565 8.00815 15.1286 8.59668 13.8105L13.5078 27.2646ZM27.0332 13.0605C27.8632 14.5742 28.2967 16.2737 28.2939 18C28.2938 21.7977 26.2351 25.1129 23.1748 26.8975L26.3193 17.8066C26.907 16.3383 27.1025 15.1638 27.1025 14.1191C27.1025 13.7407 27.0775 13.3884 27.0332 13.0605ZM18 7.70605C20.68 7.70605 23.1205 8.73029 24.9521 10.4082C24.9075 10.4057 24.8639 10.3994 24.8184 10.3994C23.8076 10.3994 23.0901 11.2804 23.0898 12.2266C23.0898 13.0744 23.5788 13.7928 24.1006 14.6406C24.4925 15.3264 24.9492 16.2082 24.9492 17.4805C24.9491 18.3616 24.6102 19.384 24.165 20.8076L23.1387 24.2393L19.4189 13.1729C20.0297 13.1408 20.5816 13.077 20.5967 13.0752C21.1511 13.0096 21.0863 12.1942 20.5312 12.2266C20.5312 12.2266 18.8637 12.3574 17.7871 12.3574C16.7824 12.3574 15.0988 12.2283 15.0762 12.2266C14.5215 12.1939 14.4561 13.0426 15.0107 13.0752C15.0107 13.0752 15.5365 13.1403 16.0908 13.1729L17.6943 17.5674L15.4414 24.3242L11.6924 13.1729C12.3129 13.1403 12.8711 13.0752 12.8711 13.0752C13.4252 13.0096 13.3596 12.1948 12.8047 12.2275C12.7834 12.2292 11.1313 12.3574 10.0615 12.3574C9.86839 12.3574 9.63996 12.353 9.39844 12.3457C11.2391 9.55089 14.4036 7.70606 18 7.70605Z" fill="#00749A"/>
</g>
<rect x="0.5" y="0.5" width="35" height="35" rx="9.5" stroke="black" stroke-opacity="0.1"/>
</g>
<defs>
<clipPath id="clip0_261_299">
<rect width="36" height="36" rx="10" fill="white"/>
</clipPath>
</defs>
</svg>
