<svg width="36" height="36" viewBox="0 0 36 36" fill="none" xmlns="http://www.w3.org/2000/svg">
<g id="adobe-xd">
<g clip-path="url(#clip0_261_293)">
<path id="Base" d="M36 0H0V36H36V0Z" fill="#470137"/>
<g id="Path">
<path fill-rule="evenodd" clip-rule="evenodd" d="M22.5314 25.6077C23.4867 26.0497 24.5418 26.2636 25.5969 26.2493C26.3384 26.2493 27.0656 26.178 27.7928 26.0497C28.5912 25.9071 29.3755 25.679 30.1169 25.3653C30.2167 25.3225 30.2595 25.237 30.2595 25.1372C30.2573 25.0998 30.2551 25.0614 30.2528 25.0221C30.2405 24.8065 30.2266 24.5634 30.2024 24.3102C30.2011 24.2814 30.1998 24.2528 30.1985 24.2245C30.1857 23.9443 30.1739 23.6877 30.1739 23.4547V9.85203C30.1597 9.79499 30.1026 9.73796 30.0313 9.75222H27.1369C27.0371 9.75222 26.9943 9.80925 26.9943 9.90906V14.4148C26.9151 14.4082 26.842 14.4046 26.7737 14.4013C26.6943 14.3974 26.6212 14.3939 26.5523 14.3862C26.4239 14.372 26.3241 14.372 26.2528 14.372C24.8412 14.372 23.6435 14.6429 22.6454 15.199C21.7044 15.7123 20.9201 16.4822 20.3783 17.409C19.8508 18.3216 19.5798 19.3625 19.5941 20.4176C19.5941 21.7151 19.8508 22.7988 20.3783 23.6685C20.8916 24.5098 21.6331 25.1942 22.5314 25.6077ZM26.9943 17.1239V23.3976C26.8232 23.4547 26.6663 23.4832 26.481 23.4689C26.2956 23.4832 26.096 23.4974 25.8821 23.4974C25.4829 23.4974 25.0836 23.4404 24.6987 23.3121C24.3279 23.198 24 22.9984 23.7291 22.7417C23.4439 22.4566 23.23 22.1144 23.0874 21.7294C22.9163 21.2588 22.8308 20.7598 22.845 20.2608C22.845 19.5193 23.0019 18.9062 23.3156 18.4499C23.6293 17.9936 24.0428 17.6372 24.5276 17.3948C25.0266 17.1381 25.5827 17.0241 26.1388 17.0241C26.2956 17.0241 26.4524 17.0383 26.6093 17.0526C26.7376 17.0668 26.8659 17.0954 26.9943 17.1239Z" fill="#FF61F6"/>
<path d="M14.7318 18.2646L19.0094 11.2066C19.0379 11.1781 19.0664 11.121 19.0521 11.1068C19.0379 11.0355 18.9666 10.9927 18.8953 11.007H15.8868C15.8155 10.9927 15.7584 11.007 15.7014 11.0355C15.6586 11.064 15.6301 11.121 15.6158 11.1781C15.4878 11.4166 15.3598 11.66 15.2308 11.9051C15.0437 12.2607 14.8546 12.6202 14.6605 12.9746C14.3326 13.5735 14.0046 14.1724 13.6909 14.7712C13.3773 15.3701 13.0636 15.9832 12.7641 16.6106H12.7356C12.4362 15.9975 12.1225 15.3986 11.7803 14.7997C11.4886 14.3096 11.2159 13.8195 10.9389 13.3216C10.8775 13.2111 10.8158 13.1002 10.7537 12.9889C10.4257 12.3758 10.112 11.7627 9.84114 11.1496C9.79836 11.0925 9.75559 11.0497 9.69855 11.0212C9.64152 11.007 9.57023 10.9927 9.49893 10.9927H6.26225C6.20521 10.9927 6.14818 11.007 6.11966 11.0497C6.09114 11.0783 6.1054 11.1353 6.14818 11.1923L10.4685 18.507L6.03411 25.7788C6.00559 25.8216 5.99134 25.8786 6.00559 25.9356C6.00559 25.9896 6.03006 25.9864 6.06667 25.9816C6.07846 25.9801 6.09151 25.9784 6.1054 25.9784H9.24228C9.39912 25.9784 9.51319 25.9642 9.57023 25.8216C9.78885 25.4319 10.0075 25.0295 10.2261 24.6271C10.3354 24.4258 10.4447 24.2246 10.5541 24.025C10.8677 23.4262 11.1956 22.8132 11.5235 22.2001C11.8515 21.587 12.1795 20.9737 12.479 20.3606H12.5075C12.8497 20.9879 13.1919 21.601 13.534 22.2141C13.8762 22.8272 14.2042 23.4261 14.5037 24.0107C14.6534 24.3102 14.8067 24.606 14.9599 24.9019C15.1132 25.1978 15.2665 25.4936 15.4162 25.7931C15.516 25.9356 15.6729 25.9499 15.901 25.9499H19.1662C19.1993 25.9444 19.2281 25.9474 19.2518 25.9499C19.2894 25.9538 19.3143 25.9564 19.3231 25.9214C19.3373 25.8644 19.3231 25.8073 19.2945 25.7503L14.7318 18.2646Z" fill="#FF61F6"/>
</g>
</g>
<rect x="0.5" y="0.5" width="35" height="35" rx="9.5" stroke="black" stroke-opacity="0.1"/>
</g>
<defs>
<clipPath id="clip0_261_293">
<rect width="36" height="36" rx="10" fill="white"/>
</clipPath>
</defs>
</svg>
