<svg width="48" height="48" viewBox="0 0 48 48" fill="none" xmlns="http://www.w3.org/2000/svg">
<g id="view_in_ar_FILL0_wght400_GRAD0_opsz24 1">
<path id="Vector" d="M21.875 38.6385L12.0833 33.0083C11.4632 32.6493 10.9818 32.176 10.6391 31.5885C10.2964 31.001 10.125 30.3482 10.125 29.6302V18.3698C10.125 17.6517 10.2964 16.9989 10.6391 16.4114C10.9818 15.8239 11.4632 15.3507 12.0833 14.9916L21.875 9.36142C22.4951 9.00239 23.1479 8.82288 23.8333 8.82288C24.5188 8.82288 25.1715 9.00239 25.7917 9.36142L35.5833 14.9916C36.2035 15.3507 36.6849 15.8239 37.0276 16.4114C37.3703 16.9989 37.5417 17.6517 37.5417 18.3698V29.6302C37.5417 30.3482 37.3703 31.001 37.0276 31.5885C36.6849 32.176 36.2035 32.6493 35.5833 33.0083L25.7917 38.6385C25.1715 38.9975 24.5188 39.177 23.8333 39.177C23.1479 39.177 22.4951 38.9975 21.875 38.6385ZM21.875 34.1343V25.126L14.0417 20.5729V29.6302L21.875 34.1343ZM25.7917 34.1343L33.625 29.6302V20.5729L25.7917 25.126V34.1343ZM4.25 14.2083V8.33329C4.25 7.25621 4.63351 6.33416 5.40052 5.56715C6.16753 4.80013 7.08958 4.41663 8.16667 4.41663H14.0417V8.33329H8.16667V14.2083H4.25ZM14.0417 43.5833H8.16667C7.08958 43.5833 6.16753 43.1998 5.40052 42.4328C4.63351 41.6658 4.25 40.7437 4.25 39.6666V33.7916H8.16667V39.6666H14.0417V43.5833ZM33.625 43.5833V39.6666H39.5V33.7916H43.4167V39.6666C43.4167 40.7437 43.0332 41.6658 42.2661 42.4328C41.4991 43.1998 40.5771 43.5833 39.5 43.5833H33.625ZM39.5 14.2083V8.33329H33.625V4.41663H39.5C40.5771 4.41663 41.4991 4.80013 42.2661 5.56715C43.0332 6.33416 43.4167 7.25621 43.4167 8.33329V14.2083H39.5ZM23.8333 21.7479L31.5688 17.1948L23.8333 12.7395L16.0979 17.1948L23.8333 21.7479Z" fill="#68FFFF"/>
</g>
</svg>
