<svg width="36" height="36" viewBox="0 0 36 36" fill="none" xmlns="http://www.w3.org/2000/svg">
<g id="adobe-ae">
<g clip-path="url(#clip0_261_706)">
<path id="Base" d="M36 0H0V36H36V0Z" fill="#00005B"/>
<g id="Path">
<path fill-rule="evenodd" clip-rule="evenodd" d="M9.57838 21.4946H15.0348V21.4211L16.2375 24.9533C16.2669 25.0563 16.3695 25.1299 16.4722 25.1152H19.5378C19.6844 25.1152 19.7284 25.0416 19.6844 24.8797L14.3307 9.86774C14.316 9.79415 14.2427 9.75 14.14 9.75H10.3411C10.2678 9.76472 10.2091 9.83831 10.2238 9.91189C10.2238 10.2357 10.1944 10.5595 10.1358 10.8685C10.0771 11.0451 10.0331 11.1776 9.98907 11.3248L5.26607 24.9091C5.22207 25.0857 5.26607 25.174 5.42741 25.174H8.18495C8.31695 25.1888 8.4343 25.1005 8.46363 24.968L9.57838 21.4946ZM14.1547 18.5658H10.4291C10.6491 17.9477 10.8838 17.256 11.0745 16.5054C11.2198 16.0498 11.3595 15.5942 11.497 15.1456C11.5816 14.8696 11.6654 14.5962 11.7492 14.3272C11.9545 13.6943 12.1159 13.0615 12.2479 12.4286H12.2772C12.3345 12.6255 12.3917 12.8316 12.4515 13.0467C12.4989 13.2176 12.548 13.3942 12.5999 13.5766C12.7173 14.0034 12.8493 14.4302 12.996 14.8864C13.0693 15.1146 13.139 15.339 13.2086 15.5634C13.2783 15.7879 13.348 16.0123 13.4213 16.2405C13.5533 16.682 13.6853 17.1088 13.8173 17.5062C13.9494 17.8888 14.0667 18.2568 14.1547 18.5658Z" fill="#9999FF"/>
<path fill-rule="evenodd" clip-rule="evenodd" d="M23.6742 20.17H28.3238C28.5203 20.17 28.7091 20.1856 28.892 20.2008C29.0641 20.2151 29.2311 20.2289 29.3946 20.2289C29.7319 20.2289 30.0106 20.2142 30.2453 20.1847C30.3277 20.1796 30.401 20.1744 30.4653 20.1699C30.5842 20.1615 30.6722 20.1553 30.7293 20.1553C30.832 20.1553 30.92 20.067 30.9347 19.964C30.9412 19.905 30.9477 19.8314 30.9556 19.7432C30.9653 19.6334 30.9771 19.5009 30.9933 19.3458C31.008 19.0662 31.0227 18.7571 31.0227 18.4039C31.0227 17.8005 30.9347 17.1971 30.744 16.6084C30.5533 15.9902 30.2453 15.4309 29.8639 14.9305C29.4532 14.4154 28.9252 14.0181 28.3238 13.7531C27.6051 13.4293 26.8277 13.2822 26.0503 13.2969C25.1116 13.2969 24.2902 13.4146 23.6008 13.7531C22.9114 14.0916 22.3101 14.5626 21.826 15.1513C21.3273 15.7547 20.9606 16.4317 20.7259 17.1676C20.4766 17.9329 20.3592 18.713 20.3592 19.5077C20.3592 20.2436 20.4619 20.9648 20.6673 21.6565C20.8726 22.3629 21.21 23.0105 21.6793 23.5845C22.178 24.1879 22.8088 24.6736 23.5275 24.9827C24.2902 25.3212 25.2289 25.4978 26.3437 25.4978C27.0477 25.5125 27.7371 25.4536 28.4265 25.3212C28.9399 25.2329 29.4239 25.0857 29.8933 24.8796C29.9373 24.8502 29.9666 24.8208 29.9959 24.7766C30.0106 24.7178 30.0253 24.6589 30.0253 24.6V22.3482C30.0253 22.201 29.9813 22.1716 29.9079 22.2305C29.4972 22.3924 29.0572 22.5101 28.6025 22.569C28.1038 22.672 27.5904 22.7162 27.0771 22.7309C26.4317 22.7456 25.7863 22.6131 25.1996 22.3629C24.7596 22.1863 24.3929 21.8773 24.1288 21.4799C23.8795 21.0825 23.7328 20.6263 23.6742 20.17ZM26.769 18.0212H23.6742C23.7182 17.6533 23.8208 17.3001 23.9968 16.9616C24.3782 16.2257 25.1409 15.7989 25.9476 15.843C26.813 15.8136 27.5904 16.3729 27.8545 17.1971C27.9131 17.3737 27.9425 17.5503 27.9425 17.7416V17.8888C27.8398 17.9624 27.7224 17.9918 27.6051 18.0065C27.4291 18.0212 27.1504 18.0212 26.769 18.0212Z" fill="#9999FF"/>
</g>
</g>
<rect x="0.5" y="0.5" width="35" height="35" rx="9.5" stroke="black" stroke-opacity="0.1"/>
</g>
<defs>
<clipPath id="clip0_261_706">
<rect width="36" height="36" rx="10" fill="white"/>
</clipPath>
</defs>
</svg>
