<svg width="36" height="36" viewBox="0 0 36 36" fill="none" xmlns="http://www.w3.org/2000/svg">
<g id="adobe-pr">
<g clip-path="url(#clip0_261_705)">
<path id="Base" d="M36 0H0V36H36V0Z" fill="#00005B"/>
<g id="Path">
<path fill-rule="evenodd" clip-rule="evenodd" d="M7.875 10.0143V26.0149C7.875 26.1548 7.93708 26.217 8.06125 26.217H11.0723C11.181 26.2015 11.2586 26.1082 11.2431 25.9993V21.0079C11.538 21.0079 11.7553 21.0079 11.9105 21.0234C12.0657 21.039 12.314 21.039 12.6864 21.039C13.9591 21.039 15.1233 20.899 16.1787 20.5103C17.1876 20.1371 18.0568 19.484 18.6776 18.6133C19.2985 17.7425 19.6089 16.6385 19.6089 15.3012C19.6089 14.6015 19.4847 13.9328 19.2519 13.2798C19.0036 12.6111 18.6156 12.0047 18.1189 11.5071C17.5291 10.9318 16.8151 10.4964 16.0391 10.232C15.1699 9.9055 14.1145 9.75 12.8417 9.75C12.3761 9.75 11.9105 9.75 11.4293 9.76555C11.197 9.77306 10.972 9.77694 10.7541 9.7807C10.5208 9.78472 10.2957 9.78861 10.079 9.79665C9.87573 9.80419 9.67978 9.80807 9.48936 9.81185C9.28717 9.81586 9.09122 9.81974 8.89939 9.82775C8.5424 9.8433 8.29407 9.8433 8.03021 9.8433C7.92156 9.8433 7.875 9.9055 7.875 10.0143ZM11.2586 18.0846V12.8599C11.3672 12.8444 11.5845 12.8288 11.8949 12.8444C12.1898 12.8288 12.5468 12.8288 12.9504 12.8288C13.5867 12.8133 14.2076 12.9066 14.7819 13.1398C15.232 13.3109 15.6045 13.6218 15.8683 14.0261C16.1167 14.446 16.2408 14.928 16.2253 15.41C16.2253 16.0942 16.0701 16.6229 15.7442 17.0117C15.4027 17.4004 14.9681 17.6958 14.4714 17.8358C13.8972 18.0224 13.2918 18.1157 12.6865 18.1157H11.8639C11.691 18.1157 11.5048 18.1023 11.3051 18.0879C11.2897 18.0868 11.2742 18.0857 11.2586 18.0846Z" fill="#9999FF"/>
<path d="M24.5601 13.7773H21.8439C21.8284 13.7617 21.7973 13.7617 21.7973 13.7773C21.7197 13.7928 21.6732 13.8706 21.6887 13.9483L21.6924 13.9912C21.7222 14.3334 21.7508 14.6624 21.7508 15.0057C21.7585 15.2078 21.7624 15.41 21.7663 15.6121C21.7702 15.8143 21.7741 16.0164 21.7818 16.2185C21.7973 16.6228 21.7973 17.0115 21.7973 17.3847V26.0614C21.8129 26.1858 21.9215 26.2636 22.0457 26.248H25.1033C25.243 26.248 25.3051 26.1858 25.3051 26.0303V18.1C25.5224 17.8513 25.8018 17.6647 26.0967 17.5247C26.5157 17.3381 26.9503 17.1982 27.4004 17.1049C27.9437 16.9805 28.5179 16.9338 29.0767 16.9494C29.2474 16.9494 29.325 16.9027 29.325 16.7783V13.684C29.3095 13.5751 29.2164 13.4974 29.1077 13.5129C28.2851 13.5129 27.4625 13.7151 26.7485 14.1194C26.1122 14.4614 25.5534 14.9124 25.0878 15.4566C25.0878 15.2545 25.0723 15.0679 25.0567 14.8968C25.0412 14.7413 25.0102 14.5703 24.9791 14.4148C24.9636 14.2749 24.9326 14.1505 24.886 14.0261C24.8395 13.8861 24.7153 13.7773 24.5601 13.7773Z" fill="#9999FF"/>
</g>
</g>
<rect x="0.5" y="0.5" width="35" height="35" rx="9.5" stroke="black" stroke-opacity="0.1"/>
</g>
<defs>
<clipPath id="clip0_261_705">
<rect width="36" height="36" rx="10" fill="white"/>
</clipPath>
</defs>
</svg>
