<svg width="36" height="36" viewBox="0 0 36 36" fill="none" xmlns="http://www.w3.org/2000/svg">
<g clip-path="url(#clip0_261_744)">
<path d="M36 0H0V36H36V0Z" fill="white"/>
<path d="M13.4176 17.1487C13.3143 17.0138 13.1619 16.9254 12.9936 16.9027C12.8254 16.88 12.655 16.925 12.5197 17.0277C12.4402 17.0905 12.376 17.1706 12.3321 17.262L6.81947 28.2956C6.7414 28.452 6.72857 28.6329 6.78382 28.7988C6.83907 28.9646 6.95787 29.1017 7.1141 29.1799C7.20543 29.2261 7.30639 29.25 7.40873 29.2497H15.0892C15.2122 29.2529 15.3335 29.2201 15.4382 29.1553C15.5428 29.0905 15.6263 28.9967 15.6785 28.8851C17.3361 25.4596 16.3313 20.2515 13.4176 17.1487Z" fill="url(#paint0_linear_261_744)"/>
<path d="M17.4696 7.10803C16.0954 9.22376 15.2945 11.6606 15.1455 14.1794C14.9965 16.6982 15.5046 19.2125 16.6199 21.4756L20.3229 28.8852C20.3776 28.9947 20.4617 29.0868 20.5658 29.1512C20.6698 29.2156 20.7898 29.2497 20.9121 29.2498H28.5911C28.6777 29.25 28.7635 29.2331 28.8435 29.2C28.9236 29.1669 28.9963 29.1184 29.0576 29.0571C29.1188 28.9958 29.1673 28.9231 29.2004 28.843C29.2334 28.7629 29.2503 28.6771 29.2501 28.5904C29.2502 28.4882 29.2269 28.3874 29.1819 28.2957L18.5908 7.10493C18.5405 6.99874 18.4611 6.90902 18.3619 6.84619C18.2627 6.78335 18.1477 6.75 18.0302 6.75C17.9128 6.75 17.7978 6.78335 17.6985 6.84619C17.5993 6.90902 17.5199 6.99874 17.4696 7.10493V7.10803Z" fill="#2684FF"/>
</g>
<rect x="0.5" y="0.5" width="35" height="35" rx="9.5" stroke="black" stroke-opacity="0.1"/>
<defs>
<linearGradient id="paint0_linear_261_744" x1="16.4523" y1="18.8351" x2="10.6269" y2="28.92" gradientUnits="userSpaceOnUse">
<stop stop-color="#0052CC"/>
<stop offset="0.92" stop-color="#2684FF"/>
</linearGradient>
<clipPath id="clip0_261_744">
<rect width="36" height="36" rx="10" fill="white"/>
</clipPath>
</defs>
</svg>
