<svg width="48" height="47" viewBox="0 0 48 47" fill="none" xmlns="http://www.w3.org/2000/svg">
<g id="file-text">
<path id="Vector" d="M28.0838 3.91663H12.4172C11.3784 3.91663 10.3822 4.32927 9.64765 5.06379C8.91314 5.79831 8.50049 6.79453 8.50049 7.83329V39.1666C8.50049 40.2054 8.91314 41.2016 9.64765 41.9361C10.3822 42.6706 11.3784 43.0833 12.4172 43.0833H35.9172C36.9559 43.0833 37.9521 42.6706 38.6867 41.9361C39.4212 41.2016 39.8338 40.2054 39.8338 39.1666V15.6666L28.0838 3.91663Z" stroke="#68FFFF" stroke-width="4" stroke-linecap="round" stroke-linejoin="round"/>
<path id="Vector_2" d="M28.0835 3.91663V15.6666H39.8335" stroke="#68FFFF" stroke-width="4" stroke-linecap="round" stroke-linejoin="round"/>
<path id="Vector_3" d="M32.0002 25.4584H16.3335" stroke="#68FFFF" stroke-width="4" stroke-linecap="round" stroke-linejoin="round"/>
<path id="Vector_4" d="M32.0002 33.2916H16.3335" stroke="#68FFFF" stroke-width="4" stroke-linecap="round" stroke-linejoin="round"/>
<path id="Vector_5" d="M20.2502 17.625H18.2918H16.3335" stroke="#68FFFF" stroke-width="4" stroke-linecap="round" stroke-linejoin="round"/>
</g>
</svg>
