<svg width="37" height="36" viewBox="0 0 37 36" fill="none" xmlns="http://www.w3.org/2000/svg">
<g id="medium">
<g clip-path="url(#clip0_261_748)">
<path id="Base" d="M36.5 0H0.5V36H36.5V0Z" fill="white"/>
<path id="Path" d="M12.9414 10.8003C16.9131 10.8003 20.1327 14.0569 20.1328 18.0747C20.1328 22.0926 16.9131 25.3501 12.9414 25.3501C8.96978 25.35 5.75 22.0925 5.75 18.0747C5.7501 14.057 8.96984 10.8004 12.9414 10.8003ZM24.4268 11.2271C26.4127 11.2271 28.0234 14.2928 28.0234 18.0747L28.0186 18.4272C27.9223 22.0457 26.3507 24.9233 24.4268 24.9233C22.4408 24.9233 20.8311 21.8566 20.8311 18.0747C20.8311 14.293 22.4409 11.2274 24.4268 11.2271ZM29.9854 11.939C30.6839 11.9391 31.25 14.6862 31.25 18.0747C31.25 21.4633 30.6839 24.2103 29.9854 24.2104C29.2868 24.2104 28.7207 21.4634 28.7207 18.0747C28.7207 14.6861 29.2868 11.939 29.9854 11.939Z" fill="black"/>
</g>
<rect x="1" y="0.5" width="35" height="35" rx="9.5" stroke="black" stroke-opacity="0.1"/>
</g>
<defs>
<clipPath id="clip0_261_748">
<rect x="0.5" width="36" height="36" rx="10" fill="white"/>
</clipPath>
</defs>
</svg>
