<svg width="36" height="36" viewBox="0 0 36 36" fill="none" xmlns="http://www.w3.org/2000/svg">
<g id="notion">
<g clip-path="url(#clip0_261_743)">
<path id="Base" d="M36 0H0V36H36V0Z" fill="white"/>
<path id="Path" fill-rule="evenodd" clip-rule="evenodd" d="M10.1386 10.0862C10.9167 10.7185 11.2086 10.6702 12.6699 10.5727L26.4456 9.74554C26.7378 9.74554 26.4948 9.45407 26.3974 9.40564L24.1095 7.75169C23.6712 7.41134 23.0871 7.02158 21.9677 7.11908L8.62868 8.09199C8.1422 8.14022 8.04504 8.38346 8.23876 8.57842L10.1386 10.0862ZM10.9656 13.2967V27.7912C10.9656 28.5701 11.3549 28.8616 12.231 28.8134L27.3706 27.9373C28.2472 27.8892 28.3448 27.3534 28.3448 26.7206V12.3233C28.3448 11.6916 28.1018 11.3509 27.5652 11.3995L11.7442 12.3233C11.1603 12.3724 10.9656 12.6645 10.9656 13.2967ZM25.9113 14.0742C26.0084 14.5124 25.9114 14.9502 25.4723 14.9994L24.7429 15.1448V25.8455C24.1096 26.1859 23.5255 26.3806 23.0388 26.3806C22.2597 26.3806 22.0645 26.1372 21.4809 25.408L16.7094 17.9174V25.1647L18.2193 25.5054C18.2193 25.5054 18.2193 26.3806 17.0011 26.3806L13.6429 26.5754C13.5454 26.3806 13.6429 25.8946 13.9836 25.7972L14.8599 25.5543V15.9719L13.6432 15.8744C13.5456 15.4362 13.7886 14.8044 14.4706 14.7554L18.0732 14.5125L23.0388 22.1006V15.388L21.7728 15.2427C21.6756 14.707 22.0645 14.318 22.5514 14.2698L25.9113 14.0742ZM7.5087 6.77878L21.3835 5.757C23.0873 5.61087 23.5257 5.70877 24.5966 6.48667L29.0256 9.59961C29.7564 10.1349 30 10.2807 30 10.8642V27.9373C30 29.0074 29.6102 29.6402 28.2474 29.737L12.1346 30.71C11.1116 30.7588 10.6247 30.613 10.089 29.9316L6.82742 25.6999C6.24304 24.9209 6 24.3381 6 23.6563V8.48057C6 7.60556 6.38991 6.87565 7.5087 6.77878Z" fill="black"/>
</g>
<rect x="0.5" y="0.5" width="35" height="35" rx="9.5" stroke="black" stroke-opacity="0.1"/>
</g>
<defs>
<clipPath id="clip0_261_743">
<rect width="36" height="36" rx="10" fill="white"/>
</clipPath>
</defs>
</svg>
