<svg width="35" height="33" viewBox="0 0 35 33" fill="none" xmlns="http://www.w3.org/2000/svg">
<rect x="0.5" width="34" height="33" rx="10" fill="white"/>
<path d="M24.6018 22.7656C25.2238 21.8371 25.822 20.8932 26.3959 19.9346C26.4732 19.8012 26.5088 19.6479 26.4982 19.4943C26.4875 19.3408 26.4311 19.1938 26.336 19.0721C25.8378 18.4157 24.8838 17.0836 24.3643 15.8502C23.8303 14.5842 23.7501 12.6157 23.7463 11.6555C23.7471 11.2912 23.6255 10.9371 23.4006 10.6492L20.3125 6.75447C20.3009 6.92948 20.2764 7.10341 20.2392 7.27486C20.1368 7.75691 19.9427 8.23704 19.7216 8.71238C19.5922 8.9903 19.4416 9.28739 19.2909 9.58831L18.9916 10.1882C18.4933 11.2118 18.0289 12.3225 17.8985 13.6287C17.7788 14.8362 17.9429 16.245 18.6855 17.9231C18.8091 17.9336 18.9337 17.947 19.0582 17.9652C20.2477 18.1244 21.3642 18.6258 22.2698 19.4076C23.1543 20.1646 23.9539 21.2495 24.6018 22.7618V22.7656ZM13.8294 26.6287C13.8999 26.6402 13.9704 26.6479 14.0419 26.6479C14.795 26.6709 16.0648 26.736 17.0932 26.9258C17.9333 27.0791 19.597 27.5391 20.9653 27.9369C22.0111 28.2397 23.0877 27.4117 23.2393 26.3422C23.3494 25.5621 23.558 24.6794 23.9394 23.8696L23.9297 23.8744C23.2828 22.0823 22.4601 20.9246 21.5968 20.1857C20.841 19.5318 19.9082 19.1129 18.9143 18.9811C17.4273 18.7741 16.0639 19.1632 15.2064 19.4123C15.7201 21.538 15.5617 24.0402 13.8304 26.6297L13.8294 26.6287ZM11.2551 14.5238C11.2329 14.6196 11.201 14.7126 11.1605 14.8017L8.6354 20.3899C8.50865 20.6704 8.4697 20.9823 8.52358 21.285C8.57747 21.5878 8.72171 21.8676 8.93763 22.0881L12.9121 26.1514C14.9428 23.1796 14.6463 20.3822 13.7193 18.1972C13.0164 16.5392 11.9503 15.2445 11.257 14.5257L11.2551 14.5238ZM14.9119 18.4262C15.5057 18.2508 16.4626 17.9806 17.5625 17.9144C16.903 16.2613 16.7436 14.8161 16.8711 13.5281C17.0198 12.0407 17.547 10.7997 18.0636 9.74261C18.1727 9.51739 18.279 9.30752 18.3804 9.10626C18.5242 8.82163 18.6585 8.55329 18.7849 8.28208C18.9945 7.83166 19.1509 7.43394 19.2291 7.06498C19.3064 6.70081 19.3064 6.37497 19.2156 6.06542C19.1239 5.75396 18.9288 5.41854 18.559 5.04957C18.3114 4.98552 18.0516 4.98351 17.803 5.04373C17.5544 5.10394 17.3248 5.2245 17.1347 5.39458L12.3549 9.66115C12.0883 9.89908 11.9132 10.2216 11.8596 10.5735L11.4473 13.2856C12.0962 13.851 13.6952 15.5052 14.6676 17.8004C14.7545 18.0017 14.8366 18.2125 14.9119 18.4262Z" fill="#7C3AED"/>
</svg>
