<svg width="36" height="36" viewBox="0 0 36 36" fill="none" xmlns="http://www.w3.org/2000/svg">
<g id="trello">
<g clip-path="url(#clip0_261_746)">
<path id="Base" d="M36 0H0V36H36V0Z" fill="url(#paint0_linear_261_746)"/>
<path id="Path" fill-rule="evenodd" clip-rule="evenodd" d="M26.579 6.75H9.42466C7.94891 6.75 6.75203 7.94604 6.75002 9.42273V26.5628C6.74717 27.2745 7.02769 27.9581 7.52959 28.4623C8.03148 28.9665 8.71342 29.25 9.42466 29.25H26.579C27.2895 29.249 27.9706 28.9652 28.4717 28.461C28.9727 27.9569 29.2528 27.2739 29.25 26.5628V9.42273C29.2479 7.94745 28.0532 6.75199 26.579 6.75ZM16.4536 22.9559C16.4527 23.1938 16.3571 23.4215 16.188 23.5886C16.0188 23.7558 15.7902 23.8487 15.5525 23.8468H11.8037C11.3134 23.8449 10.917 23.4465 10.917 22.9559V11.7925C10.917 11.3019 11.3134 10.9036 11.8037 10.9016H15.5525C16.0434 10.9035 16.4408 11.3013 16.4428 11.7925L16.4536 22.9559ZM25.1046 17.8304C25.1046 18.0686 25.0094 18.2969 24.8401 18.4643C24.6708 18.6317 24.4415 18.7243 24.2035 18.7214H20.4547C19.9638 18.7194 19.5663 18.3217 19.5644 17.8304V11.7925C19.5663 11.3013 19.9638 10.9035 20.4547 10.9016H24.2035C24.6938 10.9036 25.0903 11.3019 25.0903 11.7925L25.1046 17.8304Z" fill="white"/>
</g>
<rect x="0.5" y="0.5" width="35" height="35" rx="9.5" stroke="black" stroke-opacity="0.1"/>
</g>
<defs>
<linearGradient id="paint0_linear_261_746" x1="18.0172" y1="36" x2="18.0172" y2="0" gradientUnits="userSpaceOnUse">
<stop stop-color="#0050CF"/>
<stop offset="1" stop-color="#2683FE"/>
</linearGradient>
<clipPath id="clip0_261_746">
<rect width="36" height="36" rx="10" fill="white"/>
</clipPath>
</defs>
</svg>
