<svg width="90" height="90" viewBox="0 0 90 90" fill="none" xmlns="http://www.w3.org/2000/svg">
<path fill-rule="evenodd" clip-rule="evenodd" d="M45 0C45.96 0 46.82 0.39 47.45 1.02C48.08 1.65 48.47 2.51 48.47 3.47C48.47 4.43 48.08 5.29 47.45 5.92C47.06 6.31 46.59 6.6 46.05 6.77V18.79C46.05 19.37 45.58 19.84 45 19.84C44.42 19.84 43.95 19.37 43.95 18.79V6.77C43.42 6.6 42.94 6.3 42.55 5.92C41.92 5.29 41.53 4.43 41.53 3.47C41.53 2.51 41.92 1.65 42.55 1.02C43.18 0.39 44.04 0 45 0ZM76.36 0C77.32 0 78.18 0.39 78.81 1.02C79.44 1.65 79.83 2.51 79.83 3.47C79.83 4.43 79.44 5.29 78.81 5.92C78.18 6.55 77.32 6.94 76.36 6.94C75.4 6.94 74.54 6.55 73.91 5.92C73.52 5.53 73.23 5.06 73.06 4.52H68.65V18.78C68.65 19.36 68.18 19.83 67.6 19.83C67.02 19.83 66.55 19.36 66.55 18.78V3.47C66.55 2.89 67.02 2.42 67.6 2.42H73.06C73.23 1.89 73.53 1.41 73.91 1.02C74.54 0.39 75.4 0 76.36 0ZM90 45C90 45.96 89.61 46.82 88.99 47.45C88.37 48.07 87.5 48.46 86.54 48.46C85.58 48.46 84.72 48.08 84.09 47.45C83.7 47.06 83.41 46.59 83.24 46.05H71.22C70.64 46.05 70.17 45.58 70.17 45C70.17 44.42 70.64 43.95 71.22 43.95H83.24C83.41 43.42 83.71 42.94 84.09 42.55C84.72 41.92 85.58 41.54 86.54 41.54C87.5 41.54 88.36 41.93 88.99 42.55C89.62 43.18 90 44.04 90 45ZM90 76.36C90 77.32 89.61 78.18 88.99 78.81C88.36 79.44 87.5 79.83 86.54 79.83C85.58 79.83 84.72 79.44 84.09 78.81C83.46 78.18 83.07 77.32 83.07 76.36C83.07 75.4 83.46 74.54 84.09 73.91C84.48 73.52 84.95 73.23 85.49 73.06V68.65H71.23C70.65 68.65 70.18 68.18 70.18 67.6C70.18 67.02 70.65 66.55 71.23 66.55H86.55C87.13 66.55 87.6 67.02 87.6 67.6V73.06C88.13 73.23 88.61 73.53 89 73.91C89.63 74.54 90.01 75.4 90.01 76.36H90ZM45 90C44.04 90 43.18 89.61 42.55 88.98C41.93 88.36 41.54 87.49 41.54 86.53C41.54 85.57 41.93 84.71 42.56 84.08C42.95 83.69 43.42 83.4 43.96 83.23V71.21C43.96 70.63 44.43 70.16 45.01 70.16C45.59 70.16 46.06 70.63 46.06 71.21V83.23C46.59 83.4 47.07 83.7 47.46 84.08C48.09 84.71 48.48 85.57 48.48 86.53C48.48 87.49 48.09 88.35 47.46 88.98C46.83 89.61 45.97 90 45.01 90H45ZM13.64 90C12.68 90 11.82 89.61 11.19 88.98C10.56 88.35 10.17 87.49 10.17 86.53C10.17 85.57 10.56 84.71 11.19 84.08C11.82 83.45 12.68 83.06 13.64 83.06C14.6 83.06 15.46 83.45 16.09 84.08C16.48 84.47 16.77 84.94 16.94 85.48H21.35V71.22C21.35 70.64 21.82 70.17 22.4 70.17C22.98 70.17 23.45 70.64 23.45 71.22V86.54C23.45 87.12 22.98 87.59 22.4 87.59H16.94C16.77 88.12 16.47 88.6 16.09 88.99C15.46 89.62 14.6 90.01 13.64 90.01V90ZM0 45C0 44.04 0.39 43.18 1.02 42.55C1.64 41.93 2.51 41.54 3.47 41.54C4.43 41.54 5.29 41.92 5.92 42.55C6.31 42.94 6.6 43.41 6.77 43.95H18.79C19.37 43.95 19.84 44.42 19.84 45C19.84 45.58 19.37 46.05 18.79 46.05H6.77C6.6 46.58 6.3 47.06 5.92 47.45C5.29 48.08 4.43 48.46 3.47 48.46C2.51 48.46 1.65 48.07 1.02 47.45C0.39 46.82 0 45.96 0 45ZM0 13.64C0 12.68 0.39 11.82 1.02 11.19C1.65 10.56 2.51 10.17 3.47 10.17C4.43 10.17 5.29 10.56 5.92 11.19C6.55 11.82 6.94 12.68 6.94 13.64C6.94 14.6 6.55 15.46 5.92 16.09C5.53 16.48 5.06 16.77 4.52 16.94V21.35H18.78C19.36 21.35 19.83 21.82 19.83 22.4C19.83 22.98 19.36 23.45 18.78 23.45H3.47C2.89 23.45 2.42 22.98 2.42 22.4V16.94C1.89 16.77 1.41 16.47 1.02 16.09C0.39 15.46 0 14.6 0 13.64Z" fill="#68FFFF"/>
<path fill-rule="evenodd" clip-rule="evenodd" d="M65.56 23C66.6646 23 67.56 23.8954 67.56 25V65.56C67.56 66.6646 66.6646 67.56 65.56 67.56H25C23.8954 67.56 23 66.6646 23 65.56V25C23 23.8954 23.8954 23 25 23H65.56ZM27.02 25.97H63.54C64.12 25.97 64.59 26.44 64.59 27.02V63.54C64.59 64.12 64.12 64.59 63.54 64.59H27.02C26.44 64.59 25.97 64.12 25.97 63.54V27.02C25.97 26.44 26.44 25.97 27.02 25.97Z" fill="#9747FF"/>
<path fill-rule="evenodd" clip-rule="evenodd" d="M28 28V62.41H62.41V28H28Z" fill="#0A0817"/>
<path d="M52.4472 47.3074C45.3826 45.712 44.2883 44.6177 42.693 37.5528C42.6199 37.2299 42.3325 37 42.0004 37C41.6682 37 41.3808 37.2299 41.3077 37.5528C39.7117 44.6177 38.6181 45.712 31.5535 47.3074C31.2299 47.3812 31 47.6679 31 48C31 48.3321 31.2299 48.6188 31.5535 48.6926C38.6181 50.2887 39.7117 51.383 41.3077 58.4472C41.3808 58.7701 41.6682 59 42.0004 59C42.3325 59 42.6199 58.7701 42.693 58.4472C44.289 51.383 45.3826 50.2887 52.4472 48.6926C52.7708 48.6188 53 48.3321 53 48C53 47.6679 52.7701 47.3812 52.4472 47.3074Z" fill="#F7DF1E"/>
<path d="M58.4364 36.7935C54.6078 35.929 54.0703 35.3915 53.2057 31.5636C53.1305 31.2337 52.8382 31 52.4996 31C52.1611 31 51.8688 31.2337 51.7935 31.5636C50.929 35.3915 50.3914 35.929 46.5636 36.7935C46.2337 36.8688 46 37.1611 46 37.4996C46 37.8382 46.2337 38.1305 46.5636 38.2057C50.3914 39.0703 50.929 39.6078 51.7935 43.4364C51.8688 43.7656 52.1611 44 52.4996 44C52.8382 44 53.1305 43.7656 53.2057 43.4364C54.0703 39.6078 54.6078 39.0703 58.4364 38.2057C58.7656 38.1305 59 37.8382 59 37.4996C59 37.1611 58.7656 36.8688 58.4364 36.7935Z" fill="#F7DF1E"/>
</svg>
