<svg width="45" height="44" viewBox="0 0 45 44" fill="none" xmlns="http://www.w3.org/2000/svg">
<g id="Group 2">
<path id="Union" fill-rule="evenodd" clip-rule="evenodd" d="M1.48627 44.0069L44.5137 44.0069L44.5137 43.0069L1.48627 43.0069L1.48628 0.00685885L0.486279 0.00685881L0.486269 44.0069L0.744402 44.0069L1.48627 44.0069Z" fill="#68FFFF"/>
<path id="Subtract" fill-rule="evenodd" clip-rule="evenodd" d="M44.5 40.9931L44.5 -0.00686646L3.49995 -0.00686825L3.49995 40.9931L44.5 40.9931ZM37.5 5.99313L37.5 23.9931L28.5 23.9931L28.5 32.9931L10.5 32.9931L10.5 14.9931L19.5 14.9931L19.5 5.99313L37.5 5.99313Z" fill="#301A4B"/>
<path id="Union_2" fill-rule="evenodd" clip-rule="evenodd" d="M12.5 17.9931L12.5 30.9931L13.5 30.9931L13.5 17.9931L21.5 17.9931L22.5 17.9931L22.5 16.9931L22.5 8.99313L35.5 8.99313L35.5 7.99313L22.5 7.99313L21.5 7.99313L21.5 16.9931L12.5 16.9931L12.5 17.9931Z" fill="#68FFFF"/>
<path id="Union_3" fill-rule="evenodd" clip-rule="evenodd" d="M26.5 30.9931L26.5 21.9931L35.5 21.9931L35.5 20.9931L26.5 20.9931L25.5 20.9931L25.5 30.9931L26.5 30.9931Z" fill="#68FFFF"/>
</g>
</svg>
