<svg width="24" height="16" viewBox="0 0 24 16" fill="none" xmlns="http://www.w3.org/2000/svg">
<path d="M6.98106 0.415405C7.67342 0.415405 8.31378 0.469581 8.89887 0.62994C9.48505 0.737208 9.96505 0.951743 10.3909 1.21937C10.8178 1.48736 11.1374 1.86261 11.3498 2.34514C11.5632 2.8273 11.6705 3.41781 11.6705 4.06033C11.6705 4.81121 11.5101 5.45373 11.1374 5.93589C10.8178 6.41914 10.2847 6.84712 9.64541 7.16893C10.5512 7.43764 11.2436 7.9198 11.6705 8.56232C12.0974 9.20484 12.3629 10.0099 12.3629 10.9211C12.3629 11.672 12.2025 12.3145 11.936 12.8509C11.6705 13.3872 11.2436 13.8694 10.7636 14.1912C10.242 14.5357 9.66567 14.7892 9.05923 14.9409C8.41996 15.1024 7.78069 15.2097 7.14142 15.2097H0V0.415405H6.98106ZM6.55415 6.41805C7.14033 6.41805 7.62033 6.25769 7.99306 5.99007C8.36578 5.72244 8.52614 5.2392 8.52614 4.64977C8.52614 4.32796 8.47197 4.00616 8.36578 3.79271C8.2596 3.57926 8.09924 3.41673 7.88687 3.25637C7.66973 3.13442 7.4362 3.04429 7.19343 2.98874C6.92688 2.93457 6.66142 2.93457 6.3407 2.93457H3.25053V6.41914L6.55415 6.41805ZM6.71451 12.7436C7.03415 12.7436 7.35379 12.6894 7.62033 12.6363C7.88687 12.5821 8.15342 12.476 8.36578 12.3145C8.58205 12.1567 8.76352 11.9561 8.89887 11.7251C9.00506 11.4575 9.11232 11.1357 9.11232 10.7608C9.11232 10.0099 8.89887 9.47355 8.47305 9.09866C8.04615 8.77686 7.45997 8.6165 6.76761 8.6165H3.25053V12.7447L6.71451 12.7436ZM16.9992 12.6894C17.4254 13.1185 18.0646 13.333 18.917 13.333C19.5032 13.333 20.0363 13.1727 20.4621 12.905C20.889 12.5829 21.1555 12.2611 21.2617 11.9396H23.873C23.4461 13.2258 22.8068 14.137 21.9552 14.7264C21.1014 15.2628 20.0894 15.5846 18.8639 15.5846C18.08 15.5857 17.3027 15.4402 16.5723 15.1555C15.9147 14.9102 15.3286 14.5051 14.8668 13.9766C14.3709 13.484 14.005 12.8761 13.8018 12.2073C13.5352 11.5106 13.4279 10.7608 13.4279 9.90263C13.4279 9.09866 13.5352 8.34887 13.8018 7.65109C14.0574 6.97887 14.4371 6.36066 14.921 5.82862C15.3999 5.34646 15.9861 4.91848 16.6254 4.64977C17.337 4.36405 18.0971 4.21836 18.8639 4.2207C19.7697 4.2207 20.5694 4.38214 21.2617 4.75703C21.9552 5.13193 22.4872 5.561 22.913 6.2046C23.3399 6.79403 23.6606 7.49073 23.873 8.2416C23.9792 8.99139 24.0323 9.74226 23.9792 10.5993H16.2527C16.2527 11.4575 16.5723 12.2614 16.9992 12.6905M20.3559 7.06274C19.9832 6.68785 19.397 6.47331 18.7036 6.47331C18.297 6.46722 17.8949 6.55901 17.5312 6.74094C17.2116 6.90238 16.9992 7.11692 16.7857 7.33145C16.5884 7.53782 16.4584 7.79931 16.413 8.08124C16.3588 8.34995 16.3057 8.56341 16.3057 8.77794H21.1014C20.9952 7.97398 20.7286 7.43872 20.3559 7.06274ZM15.6665 1.43391H21.6345V2.88148H15.6676L15.6665 1.43391Z" fill="white"/>
</svg>
